<svg width="17" height="17" viewBox="0 0 17 17" fill="none" xmlns="http://www.w3.org/2000/svg">
<g clip-path="url(#clip0_9_91)">
<path d="M1.8008 2.10463C1.7769 1.93596 1.74901 1.19885 1.10619 1.26393C0.568304 1.31838 0.597522 1.89612 0.649319 2.1644C0.678538 2.31713 2.4051 16.0008 2.42768 16.1469C2.45823 16.3421 2.73049 16.5453 3.04127 16.5135C3.35205 16.4829 3.53401 16.2412 3.52737 16.0114C3.52338 15.8361 1.83135 2.3344 1.8008 2.10463Z" fill="#B0B0B0"/>
<path d="M2.84342 15.4499C2.76108 15.4499 2.68936 15.3888 2.67874 15.3051L0.938893 1.87513C0.933257 1.83145 0.945203 1.78733 0.972103 1.75246C0.999003 1.71759 1.03865 1.69483 1.08233 1.68919C1.12601 1.68356 1.17014 1.6955 1.20501 1.7224C1.23988 1.7493 1.26263 1.78895 1.26827 1.83263L3.00811 15.2626C3.02006 15.3529 2.95632 15.4366 2.86467 15.4486C2.85803 15.4486 2.85139 15.4499 2.84342 15.4499Z" fill="#C8C8C8"/>
<path d="M2.1262 1.8852L1.80081 2.10567C1.80081 2.10567 2.85932 11.4504 2.89917 11.4636C2.93901 11.4769 5.21542 9.74903 7.16511 9.73575C8.96737 9.72379 9.48534 10.5512 12.2213 10.6508C13.7553 10.7066 15.3968 9.68395 15.3968 9.68395L2.1262 1.8852Z" fill="#9B9B9B"/>
<path d="M2.12614 2.40809L2.06505 1.92465C2.06505 1.92465 3.4038 0.84356 5.08521 0.935201C6.76661 1.02684 8.47325 2.53958 10.8572 2.28325C12.2664 2.13184 13.054 1.46512 13.054 1.46512L14.7526 2.07473L16.009 7.28231L14.645 8.5852C14.645 8.5852 4.32685 4.97934 4.23653 4.87309C4.14622 4.76817 2.12614 2.40809 2.12614 2.40809Z" fill="#DACEC9"/>
<path d="M2.37725 3.68924L2.01202 3.97877L2.20991 5.6894L2.65616 5.31619L2.37725 3.68924ZM2.71592 7.23533L2.41178 7.45182L2.63225 9.33643L3.14225 9.0283L2.71592 7.23533ZM4.98702 9.79994C4.99499 9.85705 5.04678 10.2581 5.04678 10.2581C5.04678 10.2581 5.86756 9.88893 6.57811 9.8026C7.15983 9.73088 7.59147 9.74947 7.59147 9.74947L7.53303 9.35502L6.03092 9.25143L4.98702 9.79994ZM9.85725 9.87963L9.93163 10.3232C9.93163 10.3232 10.2716 10.4308 10.8879 10.5304C11.6622 10.6566 12.1469 10.6579 12.2147 10.6553L12.1403 10.0111L10.763 9.64455L9.85725 9.87963ZM14.3118 9.77737L14.3795 10.1917C14.3795 10.1917 14.9134 10.0111 15.5655 9.62861C16.0596 9.33776 16.4049 9.07744 16.4089 9.04291C16.4129 9.00838 16.3319 8.6551 16.3146 8.59932C16.2973 8.54354 16.1526 8.42002 16.1526 8.42002L14.3118 9.77737Z" fill="#2F2F2F"/>
<path d="M3.14638 10.7823L2.12638 2.40711C2.12638 2.40711 3.38943 1.14672 5.20763 1.38844C7.02584 1.63015 9.07248 2.89055 10.8601 2.64883C12.6478 2.40578 13.9799 1.37383 13.9799 1.37383L14.2827 1.69258L15.7676 7.82851L14.3133 9.77953C14.3133 9.77953 13.2986 10.2523 11.92 10.1766C9.03662 10.0186 8.75771 9.14867 6.55435 9.38773C5.96998 9.45148 5.40552 9.63211 4.90748 9.83398C3.88216 10.2484 3.14638 10.7823 3.14638 10.7823Z" fill="#F1EDEC"/>
<path d="M3.75051 1.09358L3.97895 2.89452C3.97895 2.89452 3.39325 3.0685 2.94833 3.30225C2.61098 3.47889 2.28825 3.76046 2.28825 3.76046L2.49809 5.44983C2.49809 5.44983 2.89387 5.1696 3.36934 4.95178C3.68809 4.80569 4.15426 4.68085 4.15426 4.68085L4.42919 6.40608C4.42919 6.40608 3.8063 6.61991 3.45434 6.80717C3.10239 6.99444 2.71723 7.23483 2.71723 7.23483L2.94833 9.14733C2.94833 9.14733 3.49153 8.82194 3.74387 8.6971C4.15825 8.49257 4.76387 8.26147 4.76387 8.26147L4.98966 9.80077C4.98966 9.80077 5.77856 9.51655 6.30184 9.43421C7.01239 9.32397 7.537 9.35319 7.537 9.35319L7.32184 7.92678C7.32184 7.92678 7.82387 7.89757 8.43216 8.03171C8.98598 8.15389 9.577 8.29202 9.577 8.29202L9.86122 9.8778C9.86122 9.8778 10.2371 9.99866 10.9317 10.0996C11.6276 10.2005 12.1642 10.1846 12.1642 10.1846L11.953 8.61874C11.953 8.61874 12.5002 8.58155 12.9956 8.50585C13.491 8.43147 14.0236 8.24819 14.0236 8.24819L14.3118 9.78085C14.3118 9.78085 14.8815 9.52585 15.3676 9.23366C15.956 8.88038 16.3146 8.5935 16.3146 8.5935L16.0091 7.28264C16.0091 7.28264 15.4566 7.5921 15.1007 7.77272C14.6385 8.00514 14.0607 8.20303 14.0607 8.20303L13.754 6.54155C13.754 6.54155 14.3383 6.30249 14.7062 6.12186C15.1193 5.91999 15.6027 5.5853 15.6027 5.5853L15.1525 3.73124C15.1525 3.73124 14.681 4.03139 14.2493 4.2771C13.8961 4.47764 13.4325 4.71936 13.3794 4.70475C13.3263 4.69014 13.0222 3.27171 13.0341 3.23452C13.0394 3.21725 13.4511 3.02999 14.0222 2.65413C14.325 2.45491 14.7554 2.07772 14.7554 2.07772C14.7554 2.07772 14.5176 0.758893 14.4751 0.610143C14.4326 0.461393 14.2879 0.376393 14.1404 0.521159C13.993 0.665924 13.576 1.04311 13.3847 1.2078C13.1935 1.37249 12.6941 1.7085 12.6941 1.7085C12.6941 1.7085 12.9876 3.15881 12.9743 3.18803C12.9637 3.20796 12.726 3.33413 11.9796 3.50811C11.37 3.65022 10.9702 3.65553 10.9702 3.65553C10.9702 3.65553 10.8852 3.24514 10.8321 2.96491C10.7736 2.6621 10.69 2.29952 10.69 2.29952C10.69 2.29952 10.2052 2.33405 9.492 2.24639C8.93419 2.17866 8.41356 1.98741 8.41356 1.98741C8.41356 1.98741 8.52114 2.28225 8.56231 2.6103C8.59286 2.85733 8.69247 3.36335 8.69247 3.36335C8.69247 3.36335 8.17848 3.1628 7.59278 3.01006C7.00708 2.85733 6.43864 2.81881 6.43864 2.81881C6.43864 2.81881 6.37887 2.26764 6.33637 1.83467C6.29387 1.40171 6.28723 1.19452 6.28723 1.19452C6.28723 1.19452 5.64973 0.955456 5.0388 0.926237C4.3402 0.893034 3.75051 1.09358 3.75051 1.09358Z" fill="#434343"/>
<path d="M4.02305 2.95998C4.01375 2.99717 4.16915 4.5856 4.18907 4.60021C4.20899 4.61482 4.79469 4.48467 5.36446 4.4342C5.93422 4.38373 6.6886 4.43552 6.6886 4.43552L6.43493 2.84974C6.43493 2.84974 5.70711 2.72224 5.16789 2.74349C4.62868 2.76342 4.02836 2.94006 4.02305 2.95998ZM4.48391 6.44232L4.76946 8.20873C4.76946 8.20873 5.29938 8.00154 5.98071 7.91654C6.66204 7.83154 7.27563 7.88201 7.27563 7.88201L6.96219 6.18865C6.96219 6.18865 6.26625 6.09967 5.65664 6.15146C4.9368 6.2099 4.48391 6.44232 4.48391 6.44232ZM6.72977 4.50857L6.99008 6.12357C6.99008 6.12357 7.70196 6.19927 8.0911 6.27498C8.48024 6.35068 9.18414 6.50209 9.20008 6.48748C9.21469 6.47287 9.02211 4.98802 8.96633 4.93756C8.91055 4.88709 8.34477 4.77154 7.90649 4.6799C7.46555 4.58959 6.73375 4.4581 6.72977 4.50857ZM8.75118 3.4049C8.73524 3.41287 8.93313 4.83263 8.99821 4.89904C9.06329 4.96412 9.70875 5.08099 10.074 5.13013C10.6079 5.20052 11.256 5.20318 11.2813 5.18857C11.3065 5.17396 10.9625 3.71302 10.9572 3.70373C10.9359 3.67052 10.6039 3.72365 9.90797 3.64795C9.20141 3.56959 8.7711 3.39427 8.75118 3.4049ZM11.3304 5.22576C11.3118 5.24435 11.612 6.87795 11.6292 6.90052C11.6704 6.95498 12.2348 6.8806 12.6479 6.8049C13.2522 6.69466 13.7117 6.52201 13.7117 6.52201C13.7117 6.52201 13.3717 4.82732 13.3558 4.81271C13.3412 4.7981 12.9029 5.00795 12.3092 5.1142C11.693 5.22576 11.3556 5.20052 11.3304 5.22576ZM9.26782 6.55123C9.2625 6.58177 9.58524 8.22201 9.59454 8.28576C9.59985 8.31896 10.1152 8.43584 10.6345 8.51154C11.2255 8.59787 11.9387 8.61646 11.9387 8.61646C11.9387 8.61646 11.782 7.90193 11.7248 7.57256C11.6651 7.23256 11.6 6.93638 11.6 6.93638C11.6 6.93638 10.9931 6.88592 10.4073 6.7956C9.82165 6.70529 9.26782 6.55123 9.26782 6.55123Z" fill="#F1EDEC"/>
</g>
<defs>
<clipPath id="clip0_9_91">
<rect width="17" height="17" fill="white"/>
</clipPath>
</defs>
</svg>
