<svg width="17" height="17" viewBox="0 0 17 17" fill="none" xmlns="http://www.w3.org/2000/svg">
<path d="M7.9135 1.41667C8.47704 1.41679 9.01745 1.64075 9.41588 2.03929L14.8771 7.50054C15.33 7.95351 15.5844 8.56781 15.5844 9.20833C15.5844 9.84886 15.33 10.4632 14.8771 10.9161L10.9161 14.8771C10.4632 15.33 9.84886 15.5844 9.20833 15.5844C8.56781 15.5844 7.95351 15.33 7.50054 14.8771L2.03929 9.41588C1.64075 9.01745 1.41679 8.47704 1.41667 7.9135V4.25C1.41667 3.49855 1.71518 2.77789 2.24653 2.24653C2.77788 1.71518 3.49855 1.41667 4.25 1.41667H7.9135ZM5.3125 3.89583C4.95509 3.89572 4.61085 4.03071 4.34878 4.27373C4.08671 4.51675 3.92618 4.84985 3.89938 5.20625L3.89583 5.3125C3.89583 5.59269 3.97892 5.86659 4.13458 6.09956C4.29025 6.33253 4.5115 6.51411 4.77036 6.62133C5.02923 6.72855 5.31407 6.75661 5.58888 6.70195C5.86368 6.64728 6.11611 6.51236 6.31423 6.31424C6.51236 6.11611 6.64728 5.86369 6.70195 5.58888C6.75661 5.31407 6.72855 5.02923 6.62133 4.77037C6.5141 4.5115 6.33253 4.29025 6.09956 4.13459C5.86659 3.97892 5.59269 3.89583 5.3125 3.89583Z" fill="#F8D1A1"/>
</svg>
