<svg width="17" height="17" viewBox="0 0 17 17" fill="none" xmlns="http://www.w3.org/2000/svg">
<path d="M9.28242 4.66784C8.03198 5.35114 6.2059 9.21439 6.28145 10.8204C6.35654 12.409 7.12154 13.4899 8.10187 13.8261C9.0822 14.1623 12.7141 14.4584 12.3032 10.2769C12.2088 9.31781 12.9634 8.60711 13.2311 8.66945C13.9102 8.82811 12.869 9.37117 13.1589 10.1678C13.3978 10.8247 13.6906 12.6814 12.6673 14.4816C11.9774 15.6947 10.3204 16.5277 8.15145 16.5277C6.3419 16.5277 4.5007 15.4855 3.84101 13.7794C3.08734 11.8305 3.51187 10.0804 4.02801 9.28239C4.73776 8.18542 7.08895 5.15186 6.07037 4.45014C7.48704 4.92236 9.28242 4.66784 9.28242 4.66784Z" fill="#FFCC4D"/>
<path d="M7.79167 1.65278C8.44239 1.65278 8.97222 2.18261 8.97222 2.83333C8.97222 3.48405 8.44239 4.01389 7.79167 4.01389C7.14094 4.01389 6.61111 3.48405 6.61111 2.83333C6.61111 2.18261 7.14094 1.65278 7.79167 1.65278ZM7.79167 0.472221C7.1654 0.472284 6.56481 0.721128 6.12201 1.16401C5.67922 1.60689 5.43049 2.20754 5.43056 2.8338C5.43062 3.46007 5.67946 4.06067 6.12234 4.50346C6.56523 4.94625 7.16587 5.19498 7.79214 5.19492C8.41841 5.19485 9.019 4.94601 9.46179 4.50313C9.90459 4.06024 10.1533 3.4596 10.1532 2.83333C10.1532 2.20706 9.90434 1.60647 9.46146 1.16368C9.01858 0.720883 8.41793 0.472159 7.79167 0.472221Z" fill="#FFCC4D"/>
<path d="M6.95494 4.90668C6.95494 4.90668 7.58725 5.16405 8.19594 5.0238C8.19594 5.0238 7.16603 6.28793 6.65083 7.48218C6.13564 8.67643 5.50947 10.0284 5.80791 11.6028C6.06528 12.9609 6.83783 14.3889 8.78102 14.4824C10.7242 14.5759 11.8949 13.8034 12.199 13.2183C12.5036 12.6332 12.6906 12.6563 12.4799 13.4756C12.4006 13.784 11.6266 15.6181 8.62991 15.8051C6.42889 15.9425 4.83183 14.7025 4.31664 12.7125C3.80144 10.7226 4.98341 8.93521 5.53686 8.10505C6.94219 5.99752 6.95494 4.90668 6.95494 4.90668Z" fill="#FFAC33"/>
<path d="M7.35686 5.01955C7.11792 4.9728 6.955 4.90668 6.955 4.90668C6.955 4.90668 6.9517 5.10691 6.83978 5.49885C6.74156 5.84216 6.55833 6.33374 6.22022 6.96935C6.51576 6.5077 6.79981 6.0388 7.07211 5.56307C7.2662 5.6103 7.48153 5.64524 7.71622 5.66318C7.86971 5.4453 8.02971 5.23207 8.196 5.0238C7.8952 5.09274 7.59014 5.06488 7.35686 5.01955ZM8.91756 14.8092C10.9651 14.8701 11.9988 14.132 12.5527 12.8584C12.5102 12.7508 12.3756 12.8778 12.199 13.2178C11.8944 13.8029 10.7243 14.5759 8.78108 14.4819C7.0282 14.3974 6.2292 13.2268 5.90053 12.0014L5.88825 12.0037C6.14042 12.9297 6.56117 14.7388 8.91756 14.8092Z" fill="#F4900C"/>
<path d="M7.79171 1.65297C8.3716 1.65297 8.85232 2.07419 8.95149 2.62575C8.95951 2.63472 8.96849 2.64369 8.9751 2.65314C8.96613 2.00147 8.57229 1.35028 7.74685 1.41355C7.04088 1.46786 6.67963 2.05153 6.61918 2.58183C6.62815 2.56766 6.6409 2.55539 6.65224 2.54264C6.71634 2.28883 6.86315 2.0636 7.06949 1.9025C7.27582 1.7414 7.52993 1.6536 7.79171 1.65297Z" fill="#C1694F"/>
<path d="M8.97219 2.83324C8.97219 3.48396 8.44236 4.01379 7.79164 4.01379C7.14091 4.01379 6.61108 3.48396 6.61108 2.83324C6.60565 2.74929 6.60818 2.66502 6.61864 2.58154C6.5913 2.62225 6.57398 2.66886 6.56811 2.71754C6.49964 3.42257 7.03372 4.30185 7.93566 4.23243C8.75639 4.16915 9.07277 3.35882 9.0298 2.78082C9.02374 2.73392 9.00478 2.68961 8.97502 2.65285C8.97597 2.71329 8.97786 2.77374 8.97219 2.83324Z" fill="#FFD983"/>
<path d="M6.65173 2.54281C6.6404 2.55603 6.62765 2.56831 6.61868 2.582C6.60822 2.66548 6.60569 2.74975 6.61112 2.8337C6.61112 2.73264 6.62765 2.63631 6.65173 2.54281ZM8.97223 2.8337C8.9779 2.7742 8.97601 2.71375 8.97507 2.65331C8.96798 2.64386 8.95948 2.63489 8.95145 2.62592C8.96326 2.69392 8.97223 2.76239 8.97223 2.8337Z" fill="#FFD983"/>
<path d="M7.72546 0.719235C8.3979 0.686651 9.23751 1.13526 9.47173 1.56073C9.70312 1.98148 9.1969 1.77182 9.05098 1.56073C8.86162 1.28732 8.06215 1.13998 7.66218 1.18201C7.2622 1.22404 6.57937 1.51446 6.37868 1.8554C6.16807 2.21287 5.81957 2.29693 5.99995 1.8554C6.18932 1.39262 6.8627 0.761262 7.72546 0.719235Z" fill="#FFE8B6"/>
<path d="M8.18825 16.2956C5.31903 16.2068 4.11109 14.2707 3.73189 13.4703C3.76542 13.5728 3.80084 13.6757 3.84098 13.7796C4.50114 15.4858 6.34234 16.528 8.15142 16.528C10.3199 16.528 11.9774 15.695 12.6673 14.4818C12.7485 14.3387 12.8189 14.1957 12.884 14.0526C12.2881 14.8823 11.1004 16.3858 8.18825 16.2956Z" fill="#C1694F"/>
<path d="M12.6207 9.31011C12.9182 9.01261 13.2941 8.86149 13.0693 9.19772C12.845 9.53441 12.7048 9.75872 12.7326 10.1233C12.7605 10.4878 12.4521 10.2073 12.4521 10.0109C12.4526 9.81491 12.4243 9.50655 12.6207 9.31011Z" fill="#FFE8B6"/>
</svg>
