<svg width="17" height="17" viewBox="0 0 17 17" fill="none" xmlns="http://www.w3.org/2000/svg">
<path d="M13.175 7.65C13.7145 7.64992 14.2339 7.85505 14.6277 8.22378C15.0215 8.59252 15.2604 9.09725 15.2957 9.6356L15.3 9.775V14.025C15.3002 14.1312 15.2606 14.2336 15.1891 14.3121C15.1175 14.3906 15.0192 14.4394 14.9134 14.449C14.8076 14.4586 14.7021 14.4283 14.6176 14.364C14.5331 14.2996 14.4757 14.206 14.4568 14.1015L14.45 14.025V11.9H2.55V14.025C2.5502 14.1312 2.51062 14.2336 2.43907 14.3121C2.36752 14.3906 2.26917 14.4394 2.1634 14.449C2.05763 14.4586 1.9521 14.4283 1.86759 14.364C1.78308 14.2996 1.72572 14.206 1.7068 14.1015L1.7 14.025V9.775C1.69992 9.23549 1.90505 8.71615 2.27378 8.32231C2.64252 7.92848 3.14725 7.68964 3.6856 7.65425L3.825 7.65H13.175Z" fill="#B8B8B8"/>
<path d="M5.5252 2.55078H11.4752C12.0147 2.5507 12.534 2.75583 12.9279 3.12457C13.3217 3.4933 13.5606 3.99803 13.5959 4.53638L13.6002 4.67578V6.80078H11.9002V6.37578C11.9002 6.27631 11.8654 6.17998 11.8017 6.10356C11.738 6.02714 11.6495 5.97549 11.5517 5.95758L11.4752 5.95078H9.35019C9.25072 5.95075 9.15439 5.98561 9.07797 6.04929C9.00156 6.11297 8.9499 6.20143 8.932 6.29928L8.9252 6.37578V6.80078H8.07519V6.37578C8.07523 6.27631 8.04037 6.17998 7.97669 6.10356C7.91301 6.02714 7.82454 5.97549 7.7267 5.95758L7.6502 5.95078H5.5252C5.42572 5.95075 5.32939 5.98561 5.25297 6.04929C5.17656 6.11297 5.1249 6.20143 5.10699 6.29928L5.1002 6.37578V6.80078H3.4002V4.67578C3.40011 4.13627 3.60524 3.61693 3.97398 3.22309C4.34272 2.82926 4.84745 2.59042 5.38579 2.55503L5.5252 2.55078Z" fill="#CB1F1D"/>
</svg>
